<svg width="308" height="308" viewBox="0 0 308 308" fill="none" xmlns="http://www.w3.org/2000/svg">
<rect width="308" height="308" fill="#1E1E1E"/>
<rect x="2" y="2" width="304" height="304" rx="17" fill="#0B0500" stroke="#0B0500" stroke-width="4"/>
<g filter="url(#filter0_dd_1_2)">
<mask id="path-2-outside-1_1_2" maskUnits="userSpaceOnUse" x="66" y="56" width="174" height="194" fill="black">
<rect fill="white" x="66" y="56" width="174" height="194"/>
<path d="M67.6562 129L84.8402 58.92H103.08L120.456 129H105.768L102.408 113.16H85.7042L82.3442 129H67.6562ZM88.1042 101.64H99.9123L96.5522 84.744C96.1042 82.312 95.6242 79.912 95.1123 77.544C94.6643 75.112 94.3123 73.224 94.0562 71.88C93.8002 73.224 93.4482 75.08 93.0002 77.448C92.6163 79.816 92.1683 82.216 91.6562 84.648L88.1042 101.64ZM154.019 129.96C149.347 129.96 145.283 129.096 141.827 127.368C138.371 125.576 135.683 123.112 133.763 119.976C131.907 116.776 130.979 113.064 130.979 108.84V96.36C130.979 92.136 131.907 88.456 133.763 85.32C135.683 82.12 138.371 79.656 141.827 77.928C145.283 76.136 149.347 75.24 154.019 75.24C158.755 75.24 162.819 76.136 166.211 77.928C169.667 79.656 172.323 82.12 174.179 85.32C176.099 88.456 177.059 92.136 177.059 96.36V108.84C177.059 113.064 176.099 116.776 174.179 119.976C172.323 123.112 169.667 125.576 166.211 127.368C162.819 129.096 158.755 129.96 154.019 129.96ZM154.019 117.48C156.835 117.48 158.979 116.744 160.451 115.272C161.923 113.736 162.659 111.592 162.659 108.84V96.36C162.659 93.544 161.923 91.4 160.451 89.928C158.979 88.456 156.835 87.72 154.019 87.72C151.267 87.72 149.123 88.456 147.587 89.928C146.115 91.4 145.379 93.544 145.379 96.36V108.84C145.379 111.592 146.115 113.736 147.587 115.272C149.123 116.744 151.267 117.48 154.019 117.48ZM214.749 129.96C210.077 129.96 205.981 129.096 202.461 127.368C198.941 125.576 196.189 123.112 194.205 119.976C192.285 116.776 191.325 113.064 191.325 108.84V79.08C191.325 74.792 192.285 71.08 194.205 67.944C196.189 64.808 198.941 62.376 202.461 60.648C205.981 58.856 210.077 57.96 214.749 57.96C219.485 57.96 223.581 58.856 227.037 60.648C230.557 62.376 233.277 64.808 235.197 67.944C237.181 71.08 238.173 74.792 238.173 79.08H223.773C223.773 76.264 222.973 74.12 221.373 72.648C219.837 71.176 217.629 70.44 214.749 70.44C211.869 70.44 209.629 71.176 208.029 72.648C206.493 74.12 205.725 76.264 205.725 79.08V108.84C205.725 111.592 206.493 113.736 208.029 115.272C209.629 116.744 211.869 117.48 214.749 117.48C217.629 117.48 219.837 116.744 221.373 115.272C222.973 113.736 223.773 111.592 223.773 108.84H238.173C238.173 113.064 237.181 116.776 235.197 119.976C233.277 123.112 230.557 125.576 227.037 127.368C223.581 129.096 219.485 129.96 214.749 129.96ZM101.478 249V236.136L128.07 209.736C130.758 207.048 132.102 203.816 132.102 200.04C132.102 197.416 131.302 195.24 129.702 193.512C128.166 191.784 126.118 190.92 123.558 190.92C120.934 190.92 118.79 191.816 117.126 193.608C115.526 195.4 114.726 197.704 114.726 200.52H100.326C100.326 196.04 101.318 192.136 103.302 188.808C105.35 185.416 108.134 182.76 111.654 180.84C115.238 178.92 119.366 177.96 124.038 177.96C128.582 177.96 132.55 178.856 135.942 180.648C139.334 182.376 141.99 184.84 143.91 188.04C145.83 191.176 146.79 194.824 146.79 198.984C146.79 202.696 145.99 206.312 144.39 209.832C142.79 213.288 140.198 216.712 136.614 220.104L119.91 236.04H147.558V249H101.478ZM161.44 249V236.136L188.032 209.736C190.72 207.048 192.064 203.816 192.064 200.04C192.064 197.416 191.264 195.24 189.664 193.512C188.128 191.784 186.08 190.92 183.52 190.92C180.896 190.92 178.752 191.816 177.088 193.608C175.488 195.4 174.688 197.704 174.688 200.52H160.288C160.288 196.04 161.28 192.136 163.264 188.808C165.312 185.416 168.096 182.76 171.616 180.84C175.2 178.92 179.328 177.96 184 177.96C188.544 177.96 192.512 178.856 195.904 180.648C199.296 182.376 201.952 184.84 203.872 188.04C205.792 191.176 206.752 194.824 206.752 198.984C206.752 202.696 205.952 206.312 204.352 209.832C202.752 213.288 200.16 216.712 196.576 220.104L179.872 236.04H207.52V249H161.44Z"/>
</mask>
<path d="M67.6562 129L84.8402 58.92H103.08L120.456 129H105.768L102.408 113.16H85.7042L82.3442 129H67.6562ZM88.1042 101.64H99.9123L96.5522 84.744C96.1042 82.312 95.6242 79.912 95.1123 77.544C94.6643 75.112 94.3123 73.224 94.0562 71.88C93.8002 73.224 93.4482 75.08 93.0002 77.448C92.6163 79.816 92.1683 82.216 91.6562 84.648L88.1042 101.64ZM154.019 129.96C149.347 129.96 145.283 129.096 141.827 127.368C138.371 125.576 135.683 123.112 133.763 119.976C131.907 116.776 130.979 113.064 130.979 108.84V96.36C130.979 92.136 131.907 88.456 133.763 85.32C135.683 82.12 138.371 79.656 141.827 77.928C145.283 76.136 149.347 75.24 154.019 75.24C158.755 75.24 162.819 76.136 166.211 77.928C169.667 79.656 172.323 82.12 174.179 85.32C176.099 88.456 177.059 92.136 177.059 96.36V108.84C177.059 113.064 176.099 116.776 174.179 119.976C172.323 123.112 169.667 125.576 166.211 127.368C162.819 129.096 158.755 129.96 154.019 129.96ZM154.019 117.48C156.835 117.48 158.979 116.744 160.451 115.272C161.923 113.736 162.659 111.592 162.659 108.84V96.36C162.659 93.544 161.923 91.4 160.451 89.928C158.979 88.456 156.835 87.72 154.019 87.72C151.267 87.72 149.123 88.456 147.587 89.928C146.115 91.4 145.379 93.544 145.379 96.36V108.84C145.379 111.592 146.115 113.736 147.587 115.272C149.123 116.744 151.267 117.48 154.019 117.48ZM214.749 129.96C210.077 129.96 205.981 129.096 202.461 127.368C198.941 125.576 196.189 123.112 194.205 119.976C192.285 116.776 191.325 113.064 191.325 108.84V79.08C191.325 74.792 192.285 71.08 194.205 67.944C196.189 64.808 198.941 62.376 202.461 60.648C205.981 58.856 210.077 57.96 214.749 57.96C219.485 57.96 223.581 58.856 227.037 60.648C230.557 62.376 233.277 64.808 235.197 67.944C237.181 71.08 238.173 74.792 238.173 79.08H223.773C223.773 76.264 222.973 74.12 221.373 72.648C219.837 71.176 217.629 70.44 214.749 70.44C211.869 70.44 209.629 71.176 208.029 72.648C206.493 74.12 205.725 76.264 205.725 79.08V108.84C205.725 111.592 206.493 113.736 208.029 115.272C209.629 116.744 211.869 117.48 214.749 117.48C217.629 117.48 219.837 116.744 221.373 115.272C222.973 113.736 223.773 111.592 223.773 108.84H238.173C238.173 113.064 237.181 116.776 235.197 119.976C233.277 123.112 230.557 125.576 227.037 127.368C223.581 129.096 219.485 129.96 214.749 129.96ZM101.478 249V236.136L128.07 209.736C130.758 207.048 132.102 203.816 132.102 200.04C132.102 197.416 131.302 195.24 129.702 193.512C128.166 191.784 126.118 190.92 123.558 190.92C120.934 190.92 118.79 191.816 117.126 193.608C115.526 195.4 114.726 197.704 114.726 200.52H100.326C100.326 196.04 101.318 192.136 103.302 188.808C105.35 185.416 108.134 182.76 111.654 180.84C115.238 178.92 119.366 177.96 124.038 177.96C128.582 177.96 132.55 178.856 135.942 180.648C139.334 182.376 141.99 184.84 143.91 188.04C145.83 191.176 146.79 194.824 146.79 198.984C146.79 202.696 145.99 206.312 144.39 209.832C142.79 213.288 140.198 216.712 136.614 220.104L119.91 236.04H147.558V249H101.478ZM161.44 249V236.136L188.032 209.736C190.72 207.048 192.064 203.816 192.064 200.04C192.064 197.416 191.264 195.24 189.664 193.512C188.128 191.784 186.08 190.92 183.52 190.92C180.896 190.92 178.752 191.816 177.088 193.608C175.488 195.4 174.688 197.704 174.688 200.52H160.288C160.288 196.04 161.28 192.136 163.264 188.808C165.312 185.416 168.096 182.76 171.616 180.84C175.2 178.92 179.328 177.96 184 177.96C188.544 177.96 192.512 178.856 195.904 180.648C199.296 182.376 201.952 184.84 203.872 188.04C205.792 191.176 206.752 194.824 206.752 198.984C206.752 202.696 205.952 206.312 204.352 209.832C202.752 213.288 200.16 216.712 196.576 220.104L179.872 236.04H207.52V249H161.44Z" fill="#FFB038"/>
<path d="M67.6563 129L66.685 128.762L66.3814 130H67.6563V129ZM84.8402 58.92V57.92H84.0558L83.869 58.6818L84.8402 58.92ZM103.08 58.92L104.051 58.6793L103.863 57.92H103.08V58.92ZM120.456 129V130H121.734L121.427 128.759L120.456 129ZM105.768 129L104.79 129.208L104.958 130H105.768V129ZM102.408 113.16L103.386 112.952L103.218 112.16H102.408V113.16ZM85.7042 113.16V112.16H84.8941L84.726 112.952L85.7042 113.16ZM82.3442 129V130H83.1544L83.3225 129.208L82.3442 129ZM88.1042 101.64L87.1254 101.435L86.8736 102.64H88.1042V101.64ZM99.9123 101.64V102.64H101.131L100.893 101.445L99.9123 101.64ZM96.5522 84.744L95.5687 84.9252L95.5715 84.939L96.5522 84.744ZM95.1123 77.544L94.1288 77.7252L94.1316 77.7403L94.1348 77.7553L95.1123 77.544ZM94.0563 71.88L95.0386 71.6929H93.0739L94.0563 71.88ZM93.0003 77.448L92.0177 77.2621L92.0152 77.275L92.0131 77.2879L93.0003 77.448ZM91.6563 84.648L90.6777 84.442L90.6774 84.4434L91.6563 84.648ZM68.6275 129.238L85.8115 59.1581L83.869 58.6818L66.685 128.762L68.6275 129.238ZM84.8402 59.92H103.08V57.92H84.8402V59.92ZM102.11 59.1607L119.486 129.241L121.427 128.759L104.051 58.6793L102.11 59.1607ZM120.456 128H105.768V130H120.456V128ZM106.746 128.792L103.386 112.952L101.43 113.368L104.79 129.208L106.746 128.792ZM102.408 112.16H85.7042V114.16H102.408V112.16ZM84.726 112.952L81.366 128.792L83.3225 129.208L86.6825 113.368L84.726 112.952ZM82.3442 128H67.6563V130H82.3442V128ZM88.1042 102.64H99.9123V100.64H88.1042V102.64ZM100.893 101.445L97.533 84.549L95.5715 84.939L98.9315 101.835L100.893 101.445ZM97.5357 84.5628C97.0859 82.121 96.6039 79.7109 96.0897 77.3327L94.1348 77.7553C94.6446 80.1131 95.1226 82.503 95.5688 84.9252L97.5357 84.5628ZM96.0957 77.3628C95.6476 74.9302 95.2952 73.0398 95.0386 71.6929L93.0739 72.0671C93.3293 73.4081 93.6809 75.2938 94.1288 77.7252L96.0957 77.3628ZM93.0739 71.6929C92.8178 73.0375 92.4657 74.894 92.0177 77.2621L93.9828 77.6339C94.4308 75.266 94.7827 73.4105 95.0386 72.0671L93.0739 71.6929ZM92.0131 77.2879C91.6317 79.64 91.1866 82.0247 90.6777 84.442L92.6348 84.854C93.1499 82.4073 93.6008 79.992 93.9874 77.6081L92.0131 77.2879ZM90.6774 84.4434L87.1254 101.435L89.0831 101.845L92.6351 84.8526L90.6774 84.4434ZM141.827 127.368L141.366 128.256L141.373 128.259L141.38 128.262L141.827 127.368ZM133.763 119.976L132.898 120.478L132.904 120.488L132.91 120.498L133.763 119.976ZM133.763 85.32L132.905 84.8055L132.902 84.8107L133.763 85.32ZM141.827 77.928L142.274 78.8224L142.281 78.8191L142.287 78.8158L141.827 77.928ZM166.211 77.928L165.744 78.8122L165.754 78.8174L165.764 78.8224L166.211 77.928ZM174.179 85.32L173.314 85.8217L173.32 85.832L173.326 85.8422L174.179 85.32ZM174.179 119.976L173.321 119.461L173.318 119.467L174.179 119.976ZM166.211 127.368L166.665 128.259L166.671 128.256L166.211 127.368ZM160.451 115.272L161.158 115.979L161.165 115.972L161.173 115.964L160.451 115.272ZM147.587 89.928L146.895 89.206L146.887 89.2134L146.88 89.2209L147.587 89.928ZM147.587 115.272L146.865 115.964L146.879 115.979L146.895 115.994L147.587 115.272ZM154.019 128.96C149.47 128.96 145.565 128.119 142.274 126.474L141.38 128.262C145 130.073 149.224 130.96 154.019 130.96V128.96ZM142.287 126.48C138.983 124.767 136.435 122.425 134.616 119.454L132.91 120.498C134.931 123.799 137.759 126.385 141.366 128.256L142.287 126.48ZM134.628 119.474C132.872 116.447 131.979 112.913 131.979 108.84H129.979C129.979 113.215 130.941 117.105 132.898 120.478L134.628 119.474ZM131.979 108.84V96.36H129.979V108.84H131.979ZM131.979 96.36C131.979 92.2863 132.872 88.788 134.623 85.8293L132.902 84.8107C130.941 88.124 129.979 91.9857 129.979 96.36H131.979ZM134.62 85.8345C136.439 82.8036 138.982 80.4685 142.274 78.8224L141.38 77.0336C137.76 78.8435 134.927 81.4364 132.905 84.8055L134.62 85.8345ZM142.287 78.8158C145.575 77.1109 149.475 76.24 154.019 76.24V74.24C149.218 74.24 144.99 75.1611 141.366 77.0402L142.287 78.8158ZM154.019 76.24C158.63 76.24 162.526 77.1121 165.744 78.8122L166.678 77.0438C163.112 75.1599 158.88 74.24 154.019 74.24V76.24ZM165.764 78.8224C169.053 80.4672 171.56 82.7984 173.314 85.8217L175.044 84.8183C173.085 81.4416 170.28 78.8448 166.658 77.0336L165.764 78.8224ZM173.326 85.8422C175.136 88.7987 176.059 92.2923 176.059 96.36H178.059C178.059 91.9797 177.061 88.1133 175.032 84.7978L173.326 85.8422ZM176.059 96.36V108.84H178.059V96.36H176.059ZM176.059 108.84C176.059 112.907 175.136 116.437 173.321 119.462L175.036 120.49C177.061 117.115 178.059 113.221 178.059 108.84H176.059ZM173.318 119.467C171.564 122.43 169.052 124.768 165.75 126.48L166.671 128.256C170.281 126.384 173.081 123.794 175.039 120.485L173.318 119.467ZM165.757 126.477C162.536 128.118 158.635 128.96 154.019 128.96V130.96C158.875 130.96 163.102 130.074 166.665 128.259L165.757 126.477ZM154.019 118.48C157.004 118.48 159.44 117.697 161.158 115.979L159.744 114.565C158.518 115.791 156.666 116.48 154.019 116.48V118.48ZM161.173 115.964C162.871 114.192 163.659 111.771 163.659 108.84H161.659C161.659 111.413 160.975 113.28 159.729 114.58L161.173 115.964ZM163.659 108.84V96.36H161.659V108.84H163.659ZM163.659 96.36C163.659 93.3749 162.876 90.9389 161.158 89.2209L159.744 90.6351C160.97 91.8611 161.659 93.7131 161.659 96.36H163.659ZM161.158 89.2209C159.44 87.5028 157.004 86.72 154.019 86.72V88.72C156.666 88.72 158.518 89.4092 159.744 90.6351L161.158 89.2209ZM154.019 86.72C151.087 86.72 148.667 87.5078 146.895 89.206L148.279 90.65C149.579 89.4042 151.446 88.72 154.019 88.72V86.72ZM146.88 89.2209C145.162 90.9389 144.379 93.3749 144.379 96.36H146.379C146.379 93.7131 147.068 91.8611 148.294 90.6351L146.88 89.2209ZM144.379 96.36V108.84H146.379V96.36H144.379ZM144.379 108.84C144.379 111.771 145.167 114.192 146.865 115.964L148.309 114.58C147.063 113.28 146.379 111.413 146.379 108.84H144.379ZM146.895 115.994C148.667 117.692 151.087 118.48 154.019 118.48V116.48C151.446 116.48 149.579 115.796 148.279 114.55L146.895 115.994ZM202.461 127.368L202.008 128.259L202.014 128.262L202.021 128.266L202.461 127.368ZM194.205 119.976L193.348 120.49L193.354 120.501L193.36 120.511L194.205 119.976ZM194.205 67.944L193.36 67.4094L193.356 67.4156L193.352 67.4218L194.205 67.944ZM202.461 60.648L202.902 61.5457L202.908 61.5425L202.915 61.5392L202.461 60.648ZM227.037 60.648L226.577 61.5358L226.587 61.5408L226.597 61.5457L227.037 60.648ZM235.197 67.944L234.344 68.4661L234.348 68.4724L234.352 68.4786L235.197 67.944ZM238.173 79.08V80.08H239.173V79.08H238.173ZM223.773 79.08H222.773V80.08H223.773V79.08ZM221.373 72.648L220.681 73.37L220.689 73.377L220.696 73.3839L221.373 72.648ZM208.029 72.648L207.352 71.9121L207.345 71.919L207.337 71.926L208.029 72.648ZM208.029 115.272L207.322 115.979L207.337 115.994L207.352 116.008L208.029 115.272ZM221.373 115.272L222.065 115.994L222.066 115.993L221.373 115.272ZM223.773 108.84V107.84H222.773V108.84H223.773ZM238.173 108.84H239.173V107.84H238.173V108.84ZM235.197 119.976L234.347 119.449L234.344 119.454L235.197 119.976ZM227.037 127.368L227.484 128.262L227.491 128.259L227.037 127.368ZM214.749 128.96C210.201 128.96 206.261 128.119 202.902 126.47L202.021 128.266C205.702 130.073 209.953 130.96 214.749 130.96V128.96ZM202.915 126.477C199.544 124.761 196.932 122.416 195.05 119.441L193.36 120.511C195.446 123.808 198.338 126.391 202.008 128.259L202.915 126.477ZM195.063 119.462C193.248 116.437 192.325 112.907 192.325 108.84H190.325C190.325 113.221 191.323 117.115 193.348 120.49L195.063 119.462ZM192.325 108.84V79.08H190.325V108.84H192.325ZM192.325 79.08C192.325 74.9452 193.249 71.4204 195.058 68.4661L193.352 67.4218C191.321 70.7396 190.325 74.6388 190.325 79.08H192.325ZM195.05 68.4786C196.93 65.5076 199.538 63.1971 202.902 61.5457L202.021 59.7503C198.345 61.5549 195.449 64.1083 193.36 67.4094L195.05 68.4786ZM202.915 61.5392C206.271 59.8307 210.206 58.96 214.749 58.96V56.96C209.948 56.96 205.692 57.8813 202.008 59.7568L202.915 61.5392ZM214.749 58.96C219.359 58.96 223.291 59.8318 226.577 61.5358L227.498 59.7602C223.872 57.8802 219.611 56.96 214.749 56.96V58.96ZM226.597 61.5457C229.958 63.1959 232.53 65.5027 234.344 68.4661L236.05 67.4218C234.024 64.1133 231.156 61.5561 227.478 59.7503L226.597 61.5457ZM234.352 68.4786C236.22 71.431 237.173 74.9512 237.173 79.08H239.173C239.173 74.6328 238.142 70.729 236.042 67.4094L234.352 68.4786ZM238.173 78.08H223.773V80.08H238.173V78.08ZM224.773 79.08C224.773 76.0717 223.913 73.6254 222.05 71.9121L220.696 73.3839C222.034 74.6146 222.773 76.4563 222.773 79.08H224.773ZM222.065 71.926C220.285 70.2202 217.794 69.44 214.749 69.44V71.44C217.465 71.44 219.389 72.1318 220.681 73.37L222.065 71.926ZM214.749 69.44C211.702 69.44 209.19 70.2212 207.352 71.9121L208.706 73.3839C210.068 72.1308 212.037 71.44 214.749 71.44V69.44ZM207.337 71.926C205.547 73.642 204.725 76.0834 204.725 79.08H206.725C206.725 76.4446 207.44 74.598 208.721 73.37L207.337 71.926ZM204.725 79.08V108.84H206.725V79.08H204.725ZM204.725 108.84C204.725 111.783 205.552 114.209 207.322 115.979L208.736 114.565C207.435 113.263 206.725 111.401 206.725 108.84H204.725ZM207.352 116.008C209.19 117.699 211.702 118.48 214.749 118.48V116.48C212.037 116.48 210.068 115.789 208.706 114.536L207.352 116.008ZM214.749 118.48C217.794 118.48 220.285 117.7 222.065 115.994L220.681 114.55C219.389 115.788 217.465 116.48 214.749 116.48V118.48ZM222.066 115.993C223.907 114.225 224.773 111.794 224.773 108.84H222.773C222.773 111.39 222.039 113.247 220.681 114.551L222.066 115.993ZM223.773 109.84H238.173V107.84H223.773V109.84ZM237.173 108.84C237.173 112.901 236.222 116.426 234.347 119.449L236.047 120.503C238.141 117.126 239.173 113.227 239.173 108.84H237.173ZM234.344 119.454C232.528 122.421 229.952 124.762 226.584 126.477L227.491 128.259C231.163 126.39 234.026 123.803 236.05 120.498L234.344 119.454ZM226.59 126.474C223.301 128.118 219.364 128.96 214.749 128.96V130.96C219.606 130.96 223.862 130.074 227.484 128.262L226.59 126.474ZM101.478 249H100.478V250H101.478V249ZM101.478 236.136L100.773 235.426L100.478 235.72V236.136H101.478ZM128.07 209.736L128.774 210.446L128.777 210.443L128.07 209.736ZM129.702 193.512L128.954 194.176L128.961 194.184L128.968 194.191L129.702 193.512ZM117.126 193.608L116.393 192.928L116.386 192.935L116.38 192.942L117.126 193.608ZM114.726 200.52V201.52H115.726V200.52H114.726ZM100.326 200.52H99.3255V201.52H100.326V200.52ZM103.302 188.808L102.445 188.291L102.443 188.296L103.302 188.808ZM111.654 180.84L111.181 179.958L111.175 179.962L111.654 180.84ZM135.941 180.648L135.474 181.532L135.481 181.536L135.488 181.539L135.941 180.648ZM143.91 188.04L143.052 188.555L143.057 188.562L143.91 188.04ZM144.39 209.832L145.297 210.252L145.3 210.246L144.39 209.832ZM136.614 220.104L135.926 219.378L135.923 219.38L136.614 220.104ZM119.91 236.04L119.219 235.316L117.413 237.04H119.91V236.04ZM147.558 236.04H148.558V235.04H147.558V236.04ZM147.558 249V250H148.558V249H147.558ZM102.478 249V236.136H100.478V249H102.478ZM102.182 236.846L128.774 210.446L127.365 209.026L100.773 235.426L102.182 236.846ZM128.777 210.443C131.651 207.569 133.102 204.083 133.102 200.04H131.102C131.102 203.549 129.864 206.527 127.362 209.029L128.777 210.443ZM133.102 200.04C133.102 197.195 132.226 194.767 130.435 192.833L128.968 194.191C130.377 195.713 131.102 197.637 131.102 200.04H133.102ZM130.449 192.848C128.702 190.882 126.369 189.92 123.558 189.92V191.92C125.866 191.92 127.629 192.686 128.954 194.176L130.449 192.848ZM123.558 189.92C120.678 189.92 118.261 190.916 116.393 192.928L117.858 194.288C119.318 192.716 121.189 191.92 123.558 191.92V189.92ZM116.38 192.942C114.588 194.948 113.726 197.503 113.726 200.52H115.726C115.726 197.905 116.463 195.852 117.871 194.274L116.38 192.942ZM114.726 199.52H100.326V201.52H114.726V199.52ZM101.326 200.52C101.326 196.192 102.282 192.47 104.16 189.32L102.443 188.296C100.353 191.802 99.3255 195.888 99.3255 200.52H101.326ZM104.158 189.325C106.113 186.086 108.766 183.554 112.132 181.718L111.175 179.962C107.501 181.966 104.586 184.746 102.445 188.291L104.158 189.325ZM112.126 181.721C115.544 179.89 119.506 178.96 124.038 178.96V176.96C119.225 176.96 114.931 177.95 111.181 179.959L112.126 181.721ZM124.038 178.96C128.449 178.96 132.251 179.829 135.474 181.532L136.409 179.764C132.848 177.883 128.714 176.96 124.038 176.96V178.96ZM135.488 181.539C138.716 183.184 141.231 185.519 143.052 188.554L144.767 187.525C142.748 184.161 139.951 181.568 136.395 179.757L135.488 181.539ZM143.057 188.562C144.868 191.521 145.79 194.983 145.79 198.984H147.79C147.79 194.665 146.791 190.831 144.762 187.518L143.057 188.562ZM145.79 198.984C145.79 202.547 145.023 206.023 143.479 209.418L145.3 210.246C146.956 206.601 147.79 202.845 147.79 198.984H145.79ZM143.482 209.412C141.949 212.724 139.444 216.048 135.926 219.378L137.301 220.83C140.951 217.376 143.63 213.852 145.297 210.252L143.482 209.412ZM135.923 219.38L119.219 235.316L120.6 236.764L137.304 220.828L135.923 219.38ZM119.91 237.04H147.558V235.04H119.91V237.04ZM146.558 236.04V249H148.558V236.04H146.558ZM147.558 248H101.478V250H147.558V248ZM161.44 249H160.44V250H161.44V249ZM161.44 236.136L160.735 235.426L160.44 235.72V236.136H161.44ZM188.032 209.736L188.737 210.446L188.739 210.443L188.032 209.736ZM189.664 193.512L188.917 194.176L188.923 194.184L188.93 194.191L189.664 193.512ZM177.088 193.608L176.355 192.928L176.349 192.935L176.342 192.942L177.088 193.608ZM174.688 200.52V201.52H175.688V200.52H174.688ZM160.288 200.52H159.288V201.52H160.288V200.52ZM163.264 188.808L162.408 188.291L162.405 188.296L163.264 188.808ZM171.616 180.84L171.144 179.958L171.137 179.962L171.616 180.84ZM195.904 180.648L195.437 181.532L195.443 181.536L195.45 181.539L195.904 180.648ZM203.872 188.04L203.014 188.555L203.019 188.562L203.872 188.04ZM204.352 209.832L205.26 210.252L205.262 210.246L204.352 209.832ZM196.576 220.104L195.889 219.378L195.886 219.38L196.576 220.104ZM179.872 236.04L179.182 235.316L177.375 237.04H179.872V236.04ZM207.52 236.04H208.52V235.04H207.52V236.04ZM207.52 249V250H208.52V249H207.52ZM162.44 249V236.136H160.44V249H162.44ZM162.145 236.846L188.737 210.446L187.327 209.026L160.735 235.426L162.145 236.846ZM188.739 210.443C191.613 207.569 193.064 204.083 193.064 200.04H191.064C191.064 203.549 189.827 206.527 187.325 209.029L188.739 210.443ZM193.064 200.04C193.064 197.195 192.189 194.767 190.398 192.833L188.93 194.191C190.339 195.713 191.064 197.637 191.064 200.04H193.064ZM190.411 192.848C188.664 190.882 186.331 189.92 183.52 189.92V191.92C185.829 191.92 187.592 192.686 188.917 194.176L190.411 192.848ZM183.52 189.92C180.641 189.92 178.223 190.916 176.355 192.928L177.821 194.288C179.281 192.716 181.151 191.92 183.52 191.92V189.92ZM176.342 192.942C174.551 194.948 173.688 197.503 173.688 200.52H175.688C175.688 197.905 176.425 195.852 177.834 194.274L176.342 192.942ZM174.688 199.52H160.288V201.52H174.688V199.52ZM161.288 200.52C161.288 196.192 162.245 192.47 164.123 189.32L162.405 188.296C160.315 191.802 159.288 195.888 159.288 200.52H161.288ZM164.12 189.325C166.075 186.086 168.728 183.554 172.095 181.718L171.137 179.962C167.464 181.966 164.549 184.746 162.408 188.291L164.12 189.325ZM172.088 181.721C175.507 179.89 179.468 178.96 184 178.96V176.96C179.188 176.96 174.893 177.95 171.144 179.959L172.088 181.721ZM184 178.96C188.411 178.96 192.213 179.829 195.437 181.532L196.371 179.764C192.811 177.883 188.677 176.96 184 176.96V178.96ZM195.45 181.539C198.678 183.184 201.193 185.519 203.015 188.554L204.73 187.525C202.711 184.161 199.914 181.568 196.358 179.757L195.45 181.539ZM203.019 188.562C204.831 191.521 205.752 194.983 205.752 198.984H207.752C207.752 194.665 206.753 190.831 204.725 187.518L203.019 188.562ZM205.752 198.984C205.752 202.547 204.985 206.023 203.442 209.418L205.262 210.246C206.919 206.601 207.752 202.845 207.752 198.984H205.752ZM203.445 209.412C201.911 212.724 199.406 216.048 195.889 219.378L197.263 220.83C200.914 217.376 203.593 213.852 205.259 210.252L203.445 209.412ZM195.886 219.38L179.182 235.316L180.562 236.764L197.266 220.828L195.886 219.38ZM179.872 237.04H207.52V235.04H179.872V237.04ZM206.52 236.04V249H208.52V236.04H206.52ZM207.52 248H161.44V250H207.52V248Z" fill="#F57C01" mask="url(#path-2-outside-1_1_2)"/>
</g>
<path d="M56.7239 260.073C45.9814 260.073 36.2212 261.364 28.9954 263.469V281.447C36.2212 283.552 45.9814 284.844 56.7239 284.844C69.019 284.844 80.0263 283.152 87.42 280.485V264.431C80.0263 261.765 69.019 260.073 56.7239 260.073Z" fill="#F57C01"/>
<path d="M98.4937 274.681L97.2345 272.072C97.2409 271.973 97.2461 271.874 97.2461 271.774C97.2461 268.817 94.1709 266.092 88.997 263.909V279.639C91.4111 278.621 93.3696 277.485 94.7703 276.261C94.3581 277.919 92.9482 281.272 91.8241 283.631C89.9767 287.003 89.3077 289.94 89.3935 290.085C89.4481 290.177 90.0784 289.204 91.0078 287.629C93.1707 284.547 97.2691 278.663 98.0883 277.165C99.0162 275.466 98.4937 274.681 98.4937 274.681Z" fill="#B55B00"/>
<path d="M17.0032 271.947C17.0032 272.516 17.1178 273.077 17.3389 273.628L16.5847 274.97C16.5847 274.97 15.9806 275.754 17.0444 277.407C17.9828 278.865 22.6829 284.573 25.1636 287.561C26.2292 289.094 26.9516 290.038 27.0149 289.946C27.1145 289.802 26.3525 286.925 24.2363 283.643C23.2489 281.88 22.0695 279.545 21.3617 277.82C23.3379 279.07 25.9234 280.205 28.9954 281.181V262.712C21.5928 265.065 17.0032 268.333 17.0032 271.947Z" fill="#B55B00"/>
<path d="M55.37 232.709L52.9089 236.82C52.509 236.855 52.1091 236.89 51.7092 236.925L48.5108 233.376C48.2092 233 47.7252 232.841 47.2645 232.948C46.8038 233.055 46.433 233.424 46.268 233.841L44.6534 238.415C44.2593 238.517 43.8652 238.618 43.5436 238.781L39.7313 235.891C39.3747 235.653 38.8298 235.566 38.4416 235.735C37.9925 235.976 37.6884 236.338 37.5959 236.816L36.8102 241.653C36.4886 241.816 36.1729 242.045 35.7846 242.213L31.5815 240.23C31.1583 239.999 30.6251 240.045 30.2485 240.347C29.8661 240.582 29.6403 241.072 29.6145 241.544L29.7735 246.433C29.5244 246.656 29.2145 246.952 28.8987 247.181L24.3715 246.1C23.8875 245.94 23.4326 246.115 23.0618 246.483C22.7519 246.779 22.5986 247.329 22.7061 247.79L23.7924 252.531C23.5491 252.82 23.3059 253.11 23.0684 253.467L18.3504 253.275C17.878 253.249 17.4289 253.49 17.1973 253.913C16.9657 254.337 16.8791 254.882 17.1198 255.331L19.0493 259.729C18.8119 260.085 18.6411 260.436 18.4703 260.787L13.9064 261.589C13.3732 261.636 13.0024 262.004 12.8375 262.421C12.6783 262.905 12.725 263.439 12.9599 263.821L15.7209 267.743C15.66 267.816 15.6659 267.883 15.6717 267.949L7.92682 276.149C7.92682 276.149 6.79708 277.054 8.46748 279.258C9.97543 281.141 17.7576 288.721 21.8691 292.727C23.5887 294.725 24.7717 295.965 24.8992 295.887C25.0816 295.669 24.0886 291.995 20.6928 287.725C18.0709 283.858 14.6627 277.91 15.41 277.24C15.41 277.24 16.3165 276.086 18.191 275.251C18.1185 275.19 18.1185 275.19 18.191 275.251C18.191 275.251 56.7524 293.033 92.4956 275.533C96.5929 274.772 99.069 276.973 99.069 276.973C99.9213 277.503 97.7017 283.607 95.9071 287.66C93.4202 292.243 93.0627 295.833 93.2743 295.949C93.4135 296.004 94.3024 294.65 95.588 292.456C98.7648 288.081 104.681 279.706 105.778 277.662C107.052 275.334 105.782 274.639 105.782 274.639L97.5286 268.578C97.4386 268.318 97.3487 268.057 97.3195 267.724L99.9981 263.795C100.302 263.433 100.322 262.894 100.148 262.439C99.9739 261.984 99.6115 261.68 99.1333 261.588L94.4961 260.784C94.3336 260.463 94.1654 260.075 94.0029 259.753L95.8958 255.289C96.1274 254.866 96.0808 254.333 95.7734 253.889C95.5384 253.507 95.1152 253.275 94.6487 253.316L89.9598 253.458C89.7307 253.142 89.4349 252.832 89.2058 252.516L90.2698 247.789C90.3623 247.311 90.249 246.783 89.9532 246.474C89.585 246.103 89.1009 245.944 88.6402 246.051L84.1054 247.187C83.8155 246.943 83.5256 246.7 83.2298 246.39L83.3432 241.545C83.369 241.072 83.1282 240.623 82.7658 240.319C82.3368 240.021 81.8644 239.995 81.4153 240.236L77.223 242.214C76.8722 242.044 76.5157 241.806 76.1649 241.635L75.4118 236.866C75.3652 236.333 74.9969 235.962 74.5795 235.797C74.1563 235.565 73.6231 235.612 73.2465 235.913L69.4632 238.729C69.1183 238.625 68.7734 238.521 68.3618 238.423L66.7539 233.862C66.5798 233.407 66.2116 233.037 65.7334 232.944C65.2551 232.852 64.8002 233.026 64.4295 233.394L61.2494 236.963C60.9103 236.926 60.4987 236.827 60.093 236.796L57.6536 232.711C57.4129 232.262 56.9896 232.03 56.5173 232.004C56.0449 231.978 55.6016 232.286 55.37 232.709Z" fill="#F57C01"/>
<path d="M43.6973 286.079C43.5498 285.953 43.4726 285.878 43.4726 285.878L56.1028 284.844C45.8002 271.252 37.5464 282.079 36.6678 283.29V286.079H43.6973Z" fill="black"/>
<path d="M69.9951 285.932C70.1424 285.807 70.2198 285.732 70.2198 285.732L58.082 284.844C68.3895 270.694 76.1462 281.933 77.0247 283.143V285.932H69.9951Z" fill="black"/>
<path d="M89.3938 272.439C89.3938 272.439 88.0206 277.932 79.4259 283.709L77.0346 284.277C77.0346 284.277 69.2449 270.071 58.2116 286.076C58.2116 286.076 61.6447 284.088 70.8549 286.526C70.8549 286.526 66.6168 293.014 58.0932 292.801C58.0932 292.801 66.2617 302.626 78.7156 288.444C78.7156 288.444 91.8799 283.354 92.9453 272.439L89.3938 272.439Z" fill="#F57C01"/>
<ellipse cx="67.5" cy="269.5" rx="5.5" ry="6.5" fill="#190E01"/>
<path d="M68.2777 266.962C68.2777 268.605 67.3092 269.937 66.115 269.937C64.9208 269.937 63.9524 268.605 63.9524 266.962C63.9524 265.319 64.9208 263.987 66.115 263.987C67.3092 263.987 68.2777 265.319 68.2777 266.962Z" fill="white"/>
<ellipse cx="50" cy="269.5" rx="6" ry="6.5" fill="#190E01"/>
<path d="M49.9385 267.07C49.9385 268.764 48.9399 270.138 47.708 270.138C46.4766 270.138 45.4777 268.764 45.4777 267.07C45.4777 265.375 46.4766 264.002 47.708 264.002C48.9399 264.002 49.9385 265.375 49.9385 267.07Z" fill="white"/>
<path d="M36.6973 289.331C48.7692 304.813 54.4875 292.381 54.4875 292.381C47.7103 291.619 42.9027 287.108 42.9027 287.108C51.0354 286.07 55.7371 285.985 55.7371 285.985C44.8511 271.626 36.0195 284.63 36.0195 284.63C33.8169 283.825 31.5508 280.754 29.8777 277.916L23.1216 275.925C30.8942 289.141 36.6973 289.331 36.6973 289.331Z" fill="#F57C01"/>
<defs>
<filter id="filter0_dd_1_2" x="-60.3438" y="-70.04" width="426.517" height="447.04" filterUnits="userSpaceOnUse" color-interpolation-filters="sRGB">
<feFlood flood-opacity="0" result="BackgroundImageFix"/>
<feColorMatrix in="SourceAlpha" type="matrix" values="0 0 0 0 0 0 0 0 0 0 0 0 0 0 0 0 0 0 127 0" result="hardAlpha"/>
<feOffset/>
<feGaussianBlur stdDeviation="64"/>
<feComposite in2="hardAlpha" operator="out"/>
<feColorMatrix type="matrix" values="0 0 0 0 0.966667 0 0 0 0 0.582918 0 0 0 0 0 0 0 0 1 0"/>
<feBlend mode="normal" in2="BackgroundImageFix" result="effect1_dropShadow_1_2"/>
<feColorMatrix in="SourceAlpha" type="matrix" values="0 0 0 0 0 0 0 0 0 0 0 0 0 0 0 0 0 0 127 0" result="hardAlpha"/>
<feOffset dy="4"/>
<feGaussianBlur stdDeviation="2"/>
<feComposite in2="hardAlpha" operator="out"/>
<feColorMatrix type="matrix" values="0 0 0 0 0 0 0 0 0 0 0 0 0 0 0 0 0 0 0.25 0"/>
<feBlend mode="normal" in2="effect1_dropShadow_1_2" result="effect2_dropShadow_1_2"/>
<feBlend mode="normal" in="SourceGraphic" in2="effect2_dropShadow_1_2" result="shape"/>
</filter>
</defs>
</svg>
